{"title":"The.Fighter.2010.720p.BRRip.x264.Feel-Free","uid":6225009,"size":2634903235,"categoryP":"video","categoryS":"hd___movies","magnet":"?xt=urn:btih:134bd8f7ff81db51e4b7be5dda210a158befc986&amp;dn=The.Fighter.2010.720p.BRRip.x264.Feel-Free&amp;tr=udp%3A%2F%2Ftracker.openbittorrent.com%3A80&amp;tr=udp%3A%2F%2Fopen.demonii.com%3A1337&amp;tr=udp%3A%2F%2Ftracker.coppersurfer.tk%3A6969&amp;tr=udp%3A%2F%2Fexodus.desync.com%3A6969","seeders":0,"leechers":1,"uploader":".BONE.","files":11,"time":1299482668,"description":"Genre:Biography | Drama | Sport\nLanguage:English\n &lt;a href=&quot;\nhttp://www.imdb.com/title/tt0964517/&quot; rel=&quot;nofollow&quot; target=&quot;_NEW&quot;&gt;\nhttp://www.imdb.com/title/tt0964517/&lt;/a&gt;\n\nSource:BluRay-HDChina\nSubtitles:Romana\n\nFormat : MPEG-4\nFormat profile : Base Media\nCodec ID : isom\nFile size : 2.45 GiB\nDuration : 1h 55mn\nOverall bit rate : 3 031 Kbps\n\n\nVideo\nFormat profile : &lt;a class=&quot;__cf_email__&quot; href=&quot;/cdn-cgi/l/email-protection&quot; data-cfemail=&quot;e4ac8d838ca4a8d0cad5&quot;&gt;[email&amp;#160;protected]&lt;/a&gt;&lt;script cf-hash='f9e31' type=&quot;text/javascript&quot;&gt;\n/* &lt;![CDATA[ */!function(){try{var t=&quot;currentScript&quot;in document?document.currentScript:function(){for(var t=document.getElementsByTagName(&quot;script&quot;),e=t.length;e--;)if(t[e].getAttribute(&quot;cf-hash&quot;))return t[e]}();if(t&amp;&amp;t.previousSibling){var e,r,n,i,c=t.previousSibling,a=c.getAttribute(&quot;data-cfemail&quot;);if(a){for(e=&quot;&quot;,r=parseInt(a.substr(0,2),16),n=2;a.length-n;n+=2)i=parseInt(a.substr(n,2),16)^r,e+=String.fromCharCode(i);e=document.createTextNode(e),c.parentNode.replaceChild(e,c)}}}catch(u){}}();/* ]]&gt; */&lt;/script&gt;\nFormat settings, CABAC : Yes\nFormat settings, ReFrames : 3 frames\nCodec ID : avc1\nCodec ID/Info : Advanced Video Coding\nDuration : 1h 55mn\nBit rate mode : Variable\nBit rate : 2 623 Kbps\nMaximum bit rate : 16.1 Mbps\nWidth : 1 280 pixels\nHeight : 528 pixels\nDisplay aspect ratio : 2.40:1\nFrame rate mode : Constant\nFrame rate : 23.976 fps\nColor space : YUV\nChroma subsampling : 4:2:0\nBit depth : 8 bits\nScan type : Progressive\nBits/(Pixel*Frame) : 0.162\nStream size : 2.10 GiB (86%)\nWriting library : x264\n\n\nAudio\nID : 2\nFormat : AAC\nFormat/Info : Advanced Audio Codec\nFormat version : Version 4\nFormat profile : LC\nFormat settings, SBR : No\nCodec ID : 40\nDuration : 1h 55mn\nBit rate mode : Variable\nBit rate : 428 Kbps\nMaximum bit rate : 578 Kbps\nChannel(s) : 6 channels\nChannel positions : Front: L C R, Side: L R, LFE\nSampling rate : 48.0 KHz\nStream size : 354 MiB (14%)\n\n\nPlot:\nA look at the early years of boxer &quot;Irish&quot; Micky Ward and his brother who helped train him before going pro in the mid 1980s\n &lt;a href=&quot;\nhttp://www.postimg.com/30000/photo-29650.jpg&quot; rel=&quot;nofollow&quot; target=&quot;_NEW&quot;&gt;\nhttp://www.postimg.com/30000/photo-29650.jpg&lt;/a&gt;\n &lt;a href=&quot;\nhttp://www.postimg.com/30000/photo-29651.jpg&quot; rel=&quot;nofollow&quot; target=&quot;_NEW&quot;&gt;\nhttp://www.postimg.com/30000/photo-29651.jpg&lt;/a&gt;\n &lt;a href=&quot;\nhttp://www.postimg.com/30000/photo-29651.jpg&quot; rel=&quot;nofollow&quot; target=&quot;_NEW&quot;&gt;\nhttp://www.postimg.com/30000/photo-29651.jpg&lt;/a&gt;\n &lt;a href=&quot;\nhttp://www.postimg.com/30000/photo-29652.jpg&quot; rel=&quot;nofollow&quot; target=&quot;_NEW&quot;&gt;\nhttp://www.postimg.com/30000/photo-29652.jpg&lt;/a&gt;\n &lt;a href=&quot;\nhttp://www.postimg.com/30000/photo-29653.jpg&quot; rel=&quot;nofollow&quot; target=&quot;_NEW&quot;&gt;\nhttp://www.postimg.com/30000/photo-29653.jpg&lt;/a&gt;\n &lt;a href=&quot;\nhttp://www.postimg.com/30000/photo-29655.jpg&quot; rel=&quot;nofollow&quot; target=&quot;_NEW&quot;&gt;\nhttp://www.postimg.com/30000/photo-29655.jpg&lt;/a&gt;\n &lt;a href=&quot;\nhttp://www.postimg.com/30000/photo-29654.jpg&quot; rel=&quot;nofollow&quot; target=&quot;_NEW&quot;&gt;\nhttp://www.postimg.com/30000/photo-29654.jpg&lt;/a&gt;\n\n","torrent":{"xt":"urn:btih:134bd8f7ff81db51e4b7be5dda210a158befc986","amp;dn":"The.Fighter.2010.720p.BRRip.x264.Feel-Free","amp;tr":["udp%3A%2F%2Ftracker.openbittorrent.com%3A80","udp%3A%2F%2Fopen.demonii.com%3A1337","udp%3A%2F%2Ftracker.coppersurfer.tk%3A6969","udp%3A%2F%2Fexodus.desync.com%3A6969"],"infoHash":"134bd8f7ff81db51e4b7be5dda210a158befc986","infoHashBuffer":{"type":"Buffer","data":[19,75,216,247,255,129,219,81,228,183,190,93,218,33,10,21,139,239,201,134]},"announce":[],"urlList":[]}}